<svg width="25" height="26" viewBox="0 0 25 26" fill="none" xmlns="http://www.w3.org/2000/svg">
<path d="M15.625 20.5834C15.625 21.4453 15.2958 22.272 14.7097 22.8815C14.1237 23.491 13.3288 23.8334 12.5 23.8334C11.6712 23.8334 10.8763 23.491 10.2903 22.8815C9.70423 22.272 9.37499 21.4453 9.37499 20.5834M13.251 5.41996L11.724 5.41671C8.24062 5.40804 5.21666 8.35146 5.1927 11.9167V16.0225C5.1927 16.8784 5.08853 17.7136 4.63958 18.4254L4.34062 18.8999C3.88541 19.6192 4.37499 20.5834 5.1927 20.5834H19.8073C20.625 20.5834 21.1135 19.6192 20.6594 18.8999L20.3604 18.4254C19.9125 17.7136 19.8073 16.8773 19.8073 16.0215V11.9178C19.7656 8.35146 16.7344 5.42862 13.251 5.41996V5.41996Z" stroke="white" stroke-width="2" stroke-linecap="round" stroke-linejoin="round"/>
<path d="M12.5 2.16669C13.0525 2.16669 13.5824 2.39496 13.9731 2.80129C14.3638 3.20762 14.5833 3.75872 14.5833 4.33335V5.41669H10.4167V4.33335C10.4167 3.75872 10.6362 3.20762 11.0269 2.80129C11.4176 2.39496 11.9475 2.16669 12.5 2.16669Z" stroke="white" stroke-width="2" stroke-linecap="round" stroke-linejoin="round"/>
</svg>
